<svg width="198" height="47" viewBox="0 0 198 47" fill="none" xmlns="http://www.w3.org/2000/svg">
    <g clip-path="url(#clip0_12_188)">
        <path d="M88.5459 17.7824V18.6365C88.5396 23.9957 88.5679 29.3549 88.5113 34.714C88.4799 37.9052 86.7058 39.9418 83.5446 40.3454C80.2481 40.7646 76.9736 39.5038 76.9705 34.9831C76.9642 29.4831 76.9673 23.9832 76.9642 18.4832V17.7855H69.7861V18.405C69.7861 24.2866 69.7861 30.1652 69.7893 36.0468C69.7893 36.4254 69.805 36.807 69.8427 37.1825C70.2265 40.8366 71.7301 43.8181 75.0611 45.6733C76.637 46.5493 77.9173 46.8872 79.707 46.8934C81.4182 46.8997 83.532 46.8371 85.1771 46.3303C85.8597 46.1207 86.5422 45.689 87.1241 45.2822C87.3978 45.0914 88.9737 44.0371 88.9297 43.7055C89.0618 44.6941 89.175 45.5388 89.2882 46.3897H95.6925V17.7824H88.5459ZM59.0159 20.5762C56.5561 18.5489 53.6874 17.4852 50.5168 17.2287C46.1225 16.8689 42.1026 17.8637 38.7117 20.7514C35.1667 23.7673 33.6506 27.703 33.6632 32.2926C33.6852 39.0658 37.8026 44.5408 44.3327 46.421C44.4554 46.4554 52.9168 46.5931 53.0867 46.5493C55.7163 45.8892 58.0534 44.6878 59.9753 42.77C63.3756 39.3787 64.5929 35.2115 64.1903 30.5343C63.8443 26.5267 62.152 23.1604 59.0159 20.5762ZM55.084 37.5954C53.5522 39.6133 51.4541 40.4674 48.944 40.458C44.987 40.4455 42.156 38.1586 41.4105 34.2979C41.0111 32.2362 41.1023 30.1933 41.9201 28.2286C43.3702 24.7403 46.7076 23.4982 49.8405 23.808C54.2599 24.2428 56.7763 27.6811 56.726 32.1768C56.7103 34.1415 56.2951 35.9967 55.084 37.5954ZM59.9753 42.77C63.3756 39.3787 64.5929 35.2115 64.1903 30.5343C63.8443 26.5267 62.152 23.1604 59.0159 20.5762C56.5561 18.5489 53.6874 17.4852 50.5168 17.2287C46.1225 16.8689 42.1026 17.8637 38.7117 20.7514C35.1667 23.7673 33.6506 27.703 33.6632 32.2926C33.6852 39.0658 37.8026 44.5408 44.3327 46.421C44.4554 46.4554 52.9168 46.5931 53.0867 46.5493C55.7163 45.8892 58.0534 44.6878 59.9753 42.77ZM48.944 40.458C44.987 40.4455 42.156 38.1586 41.4105 34.2979C41.0111 32.2362 41.1023 30.1933 41.9201 28.2286C43.3702 24.7403 46.7076 23.4982 49.8405 23.808C54.2599 24.2428 56.7763 27.6811 56.726 32.1768C56.7103 34.1415 56.2951 35.9967 55.084 37.5954C53.5522 39.6133 51.4541 40.4674 48.944 40.458Z" fill="currentColor"/>
        <path d="M187.324 24.0115H174.623V17.792H197.985C198.029 18.9026 198.032 19.9006 197.327 20.9143C194.889 24.4151 192.562 27.9942 190.209 31.5544C188.432 34.2418 186.673 36.9449 184.909 39.6417C184.836 39.7543 184.773 39.8732 184.654 40.0734H197.962V46.3931H174.324C174.286 45.3075 174.252 44.322 174.931 43.3146C177.319 39.7793 179.599 36.169 181.905 32.5806C183.635 29.8869 185.346 27.1776 187.066 24.4777C187.139 24.3619 187.202 24.2399 187.328 24.0115H187.324Z" fill="currentColor"/>
        <path d="M111.477 46.4085H104.264V17.798H110.964C111.112 18.8617 111.263 19.9223 111.426 21.1017C114.267 17.5477 117.887 16.6968 122.156 17.6447C121.863 20.0349 121.58 22.3625 121.291 24.7246C119.696 24.3492 118.164 24.1771 116.623 24.5275C113.512 25.2377 111.54 27.7593 111.502 31.2226C111.448 36.0217 111.48 40.8209 111.474 45.6201C111.474 45.8579 111.474 46.0956 111.474 46.4054L111.477 46.4085Z" fill="currentColor"/>
        <path d="M161.456 17.7764H168.656V46.3868H161.456V17.7764Z" fill="currentColor"/>
        <path d="M165.022 13.187C162.559 13.1933 160.678 11.3631 160.663 8.93846C160.647 6.47318 162.537 4.59606 165.051 4.57728C167.523 4.55851 169.467 6.48569 169.451 8.93534C169.436 11.3568 167.536 13.1808 165.019 13.187H165.022Z" fill="currentColor"/>
        <path d="M16.8755 20.2105L11.1538 16.3374C14.9724 10.756 21.5717 3.2632 34.7608 2.64062L35.0879 9.51402C25.1639 9.98017 20.3135 15.1829 16.8755 20.2074V20.2105Z" fill="currentColor"/>
        <path d="M14.3341 46.7466C13.5509 46.7466 12.7142 46.6871 11.8272 46.562C4.00745 45.4357 -0.295601 39.3977 0.0158037 29.9964L6.93277 30.2248C6.64653 38.8627 11.1289 39.5072 12.818 39.7512C16.0925 40.2236 17.4985 39.1912 18.2723 38.3746C24.211 32.1019 19.4204 8.98829 17.8445 1.3922L24.6199 0C28.1272 16.9191 30.7159 35.268 23.3083 43.0925C21.6506 44.8413 18.8165 46.7466 14.3341 46.7466Z" fill="currentColor"/>
        <path d="M133.372 46.9999C131.196 46.9999 129.107 45.98 127.669 44.1811C126.537 42.7607 125.851 40.9117 125.634 38.6842C125.162 33.8256 126.87 28.1598 129.934 23.8831C129.812 23.6923 129.686 23.5014 129.56 23.3075C128.912 22.3126 128.245 21.2833 127.578 20.1789L132.973 16.9597C133.463 17.7762 133.976 18.5709 134.479 19.3467C137.314 17.4102 140.494 16.6155 143.803 17.0347C147.908 17.5541 151.327 20.5199 153.189 25.1689C155.624 31.2508 155.479 39.3506 155.384 44.7066C155.372 45.3261 155.362 45.8986 155.359 46.4148L149.068 46.3616C149.071 45.8298 149.084 45.2385 149.093 44.5971C149.175 40.0357 149.311 32.3959 147.345 27.4809C146.98 26.5674 145.586 23.5671 143.007 23.2386C141.154 23.004 139.386 23.5014 137.738 24.7184C138.16 25.5506 138.525 26.3953 138.811 27.2619C140.003 30.8848 140.972 34.2229 140.733 38.3745C140.66 39.6478 140.478 41.3153 139.707 42.9234C138.625 45.1791 136.549 46.6839 134.155 46.9529C133.894 46.9811 133.633 46.9967 133.375 46.9967L133.372 46.9999ZM133.294 30.6439C132.221 33.0935 131.674 35.7841 131.897 38.0804C131.995 39.0722 132.237 39.8355 132.595 40.2892C132.85 40.6083 133.158 40.7709 133.445 40.7397C133.681 40.7146 133.879 40.5426 134.027 40.2297C134.325 39.6071 134.41 38.7218 134.451 38.021C134.599 35.4368 134.074 33.1623 133.29 30.6439H133.294Z" fill="currentColor"/>
    </g>
    <defs>
        <clipPath id="clip0_12_188">
            <rect width="198" height="47" fill="white"/>
        </clipPath>
    </defs>
</svg>
