<?xml version="1.0" encoding="UTF-8"?><svg id="Calque_2" xmlns="http://www.w3.org/2000/svg" viewBox="0 0 481 481"><defs><style>.cls-1{fill:#ffd163;}.cls-2{fill:#17403b;}</style></defs><g id="Calque_2-2"><rect class="cls-2" width="481" height="481" rx="108.14" ry="108.14"/><path class="cls-1" d="m328.22,160.44l-1.79-37.59c-19.21.91-35.8,4.57-50.28,9.99-1.55-8.16-3.18-16.31-4.85-24.43l-36.88,7.6c1.79,8.67,4.34,21.04,6.96,35.45-19.57,14.24-33.26,31.51-43.32,46.31l31.11,21.16c5.49-8.08,11.7-16.23,19.06-23.83,6.29,48.69,7.96,102.52-11.46,123.12-4.22,4.46-11.85,10.1-29.68,7.52-9.19-1.31-33.58-4.85-32.02-52.07l-37.63-1.23c-1.71,51.4,21.72,84.42,64.25,90.58,4.81.72,9.35,1.03,13.65,1.03,24.39,0,39.78-10.42,48.81-19.97,31.31-33.26,29.8-101.28,18.58-173.37,12.61-5.61,27.49-9.39,45.47-10.22l.04-.04Z"/></g></svg>