<svg width="33" height="42" viewBox="0 0 33 42" fill="none" xmlns="http://www.w3.org/2000/svg">
<path d="M16.4839 0C12.1137 0.00518536 7.92397 1.74355 4.83376 4.83376C1.74355 7.92397 0.00518536 12.1137 0 16.4839C0 30.5884 14.9854 41.242 15.6234 41.6884C15.8758 41.8646 16.1761 41.9591 16.4839 41.9591C16.7917 41.9591 17.0921 41.8646 17.3444 41.6884C17.9825 41.242 32.9679 30.5884 32.9679 16.4839C32.9627 12.1137 31.2243 7.92397 28.1341 4.83376C25.0439 1.74355 20.8542 0.00518487 16.4839 0ZM16.485 10.4903C17.6706 10.4903 18.8295 10.8419 19.8152 11.5005C20.8009 12.1592 21.5692 13.0953 22.0229 14.1906C22.4766 15.2859 22.5953 16.4911 22.364 17.6539C22.1327 18.8166 21.5618 19.8847 20.7235 20.723C19.8852 21.5613 18.8172 22.1322 17.6544 22.3635C16.4917 22.5947 15.2865 22.476 14.1912 22.0224C13.0959 21.5687 12.1597 20.8004 11.5011 19.8147C10.8424 18.8289 10.4909 17.67 10.4909 16.4845C10.4909 15.6973 10.6459 14.9178 10.9471 14.1906C11.2483 13.4633 11.6899 12.8025 12.2465 12.2459C12.8031 11.6893 13.4639 11.2478 14.1911 10.9466C14.9184 10.6453 15.6979 10.4903 16.485 10.4903Z" fill="#0029BA"/>
</svg>
