<svg width="33" height="42" viewBox="0 0 33 42" fill="none" xmlns="http://www.w3.org/2000/svg">
<path d="M16.4839 0C12.1137 0.00509811 7.92397 1.71421 4.83376 4.75242C1.74355 7.79064 0.00518536 11.9099 0 16.2066C0 30.0736 14.9854 40.5481 15.6234 40.9869C15.8758 41.1602 16.1761 41.2531 16.4839 41.2531C16.7917 41.2531 17.0921 41.1602 17.3444 40.9869C17.9825 40.5481 32.9679 30.0736 32.9679 16.2066C32.9627 11.9099 31.2243 7.79064 28.1341 4.75242C25.0439 1.71421 20.8542 0.00509762 16.4839 0ZM16.485 10.3138C17.6706 10.3138 18.8295 10.6594 19.8152 11.307C20.8009 11.9546 21.5692 12.875 22.0229 13.9518C22.4766 15.0287 22.5953 16.2136 22.364 17.3568C22.1327 18.5 21.5618 19.5501 20.7235 20.3743C19.8852 21.1985 18.8172 21.7598 17.6544 21.9872C16.4917 22.2145 15.2865 22.0978 14.1912 21.6518C13.0959 21.2057 12.1597 20.4504 11.5011 19.4812C10.8424 18.5121 10.4909 17.3727 10.4909 16.2071C10.4909 15.4332 10.6459 14.6668 10.9471 13.9518C11.2483 13.2368 11.6899 12.5871 12.2465 12.0399C12.8031 11.4926 13.4639 11.0585 14.1911 10.7624C14.9184 10.4662 15.6979 10.3138 16.485 10.3138Z" fill="#BDD2F1"/>
</svg>
