<svg width="16" height="20" viewBox="0 0 16 20" fill="none" xmlns="http://www.w3.org/2000/svg">
<g opacity="0.75">
<path d="M7.7 10.5875C7.44473 10.5875 7.19991 10.6889 7.01941 10.8694C6.83891 11.0499 6.7375 11.2947 6.7375 11.55V14.4375C6.7375 14.6928 6.83891 14.9376 7.01941 15.1181C7.19991 15.2986 7.44473 15.4 7.7 15.4C7.95527 15.4 8.20009 15.2986 8.38059 15.1181C8.56109 14.9376 8.6625 14.6928 8.6625 14.4375V11.55C8.6625 11.2947 8.56109 11.0499 8.38059 10.8694C8.20009 10.6889 7.95527 10.5875 7.7 10.5875ZM12.5125 6.7375V4.8125C12.5125 3.53615 12.0055 2.31207 11.103 1.40955C10.2004 0.50703 8.97635 0 7.7 0C6.42365 0 5.19957 0.50703 4.29705 1.40955C3.39453 2.31207 2.8875 3.53615 2.8875 4.8125V6.7375C2.12169 6.7375 1.38724 7.04172 0.845729 7.58323C0.304218 8.12474 0 8.85919 0 9.625V16.3625C0 17.1283 0.304218 17.8628 0.845729 18.4043C1.38724 18.9458 2.12169 19.25 2.8875 19.25H12.5125C13.2783 19.25 14.0128 18.9458 14.5543 18.4043C15.0958 17.8628 15.4 17.1283 15.4 16.3625V9.625C15.4 8.85919 15.0958 8.12474 14.5543 7.58323C14.0128 7.04172 13.2783 6.7375 12.5125 6.7375ZM4.8125 4.8125C4.8125 4.04669 5.11672 3.31224 5.65823 2.77073C6.19974 2.22922 6.93419 1.925 7.7 1.925C8.46581 1.925 9.20026 2.22922 9.74177 2.77073C10.2833 3.31224 10.5875 4.04669 10.5875 4.8125V6.7375H4.8125V4.8125ZM13.475 16.3625C13.475 16.6178 13.3736 16.8626 13.1931 17.0431C13.0126 17.2236 12.7678 17.325 12.5125 17.325H2.8875C2.63223 17.325 2.38741 17.2236 2.20691 17.0431C2.02641 16.8626 1.925 16.6178 1.925 16.3625V9.625C1.925 9.36973 2.02641 9.12491 2.20691 8.94441C2.38741 8.76391 2.63223 8.6625 2.8875 8.6625H12.5125C12.7678 8.6625 13.0126 8.76391 13.1931 8.94441C13.3736 9.12491 13.475 9.36973 13.475 9.625V16.3625Z" fill="#00231E"/>
<path d="M7.7 10.5875C7.44473 10.5875 7.19991 10.6889 7.01941 10.8694C6.83891 11.0499 6.7375 11.2947 6.7375 11.55V14.4375C6.7375 14.6928 6.83891 14.9376 7.01941 15.1181C7.19991 15.2986 7.44473 15.4 7.7 15.4C7.95527 15.4 8.20009 15.2986 8.38059 15.1181C8.56109 14.9376 8.6625 14.6928 8.6625 14.4375V11.55C8.6625 11.2947 8.56109 11.0499 8.38059 10.8694C8.20009 10.6889 7.95527 10.5875 7.7 10.5875ZM12.5125 6.7375V4.8125C12.5125 3.53615 12.0055 2.31207 11.103 1.40955C10.2004 0.50703 8.97635 0 7.7 0C6.42365 0 5.19957 0.50703 4.29705 1.40955C3.39453 2.31207 2.8875 3.53615 2.8875 4.8125V6.7375C2.12169 6.7375 1.38724 7.04172 0.845729 7.58323C0.304218 8.12474 0 8.85919 0 9.625V16.3625C0 17.1283 0.304218 17.8628 0.845729 18.4043C1.38724 18.9458 2.12169 19.25 2.8875 19.25H12.5125C13.2783 19.25 14.0128 18.9458 14.5543 18.4043C15.0958 17.8628 15.4 17.1283 15.4 16.3625V9.625C15.4 8.85919 15.0958 8.12474 14.5543 7.58323C14.0128 7.04172 13.2783 6.7375 12.5125 6.7375ZM4.8125 4.8125C4.8125 4.04669 5.11672 3.31224 5.65823 2.77073C6.19974 2.22922 6.93419 1.925 7.7 1.925C8.46581 1.925 9.20026 2.22922 9.74177 2.77073C10.2833 3.31224 10.5875 4.04669 10.5875 4.8125V6.7375H4.8125V4.8125ZM13.475 16.3625C13.475 16.6178 13.3736 16.8626 13.1931 17.0431C13.0126 17.2236 12.7678 17.325 12.5125 17.325H2.8875C2.63223 17.325 2.38741 17.2236 2.20691 17.0431C2.02641 16.8626 1.925 16.6178 1.925 16.3625V9.625C1.925 9.36973 2.02641 9.12491 2.20691 8.94441C2.38741 8.76391 2.63223 8.6625 2.8875 8.6625H12.5125C12.7678 8.6625 13.0126 8.76391 13.1931 8.94441C13.3736 9.12491 13.475 9.36973 13.475 9.625V16.3625Z" fill="#00231E" fill-opacity="0.75"/>
</g>
</svg>
