<svg width="25" height="29" viewBox="0 0 25 29" fill="none" xmlns="http://www.w3.org/2000/svg">
<g id="Calque_1" clip-path="url(#clip0_1706_14336)">
<path id="Vector" d="M19.3389 26.3834H5.2719C3.0796 26.3834 1.29722 24.5603 1.29722 22.3179C1.29722 20.0755 3.0796 18.255 5.2719 18.255H15.2605C15.5537 18.255 15.8001 18.0533 15.878 17.78C15.974 17.7376 16.0596 17.6712 16.127 17.573C17.5592 15.4341 21.6947 9.01208 21.6947 6.18585C21.6947 2.7705 18.9861 0 15.6471 0C12.308 0 9.59683 2.7705 9.59683 6.18585C9.59683 8.76794 13.05 14.354 14.739 16.9282H5.2719C2.36613 16.9282 0 19.3457 0 22.3179C0 25.2901 2.36613 27.7103 5.2719 27.7103H19.3234C19.409 27.49 19.5335 27.2857 19.6944 27.1105L19.8734 26.9142L19.6581 26.7311C19.5361 26.6276 19.4297 26.5108 19.3389 26.3834ZM13.4184 5.80637C13.5663 4.85102 14.3161 4.07879 15.2501 3.91426C16.8042 3.64358 18.1299 5.00229 17.8679 6.59187C17.7096 7.54722 16.9547 8.31415 16.0181 8.46541C14.4796 8.71486 13.1746 7.38003 13.4184 5.80637Z" fill="black"/>
<path id="Vector_2" d="M24.7869 27.7474L23.5079 26.67L24.6261 25.4386C24.8518 25.1918 24.8258 24.815 24.569 24.6001C24.4496 24.5019 24.3069 24.4541 24.1617 24.4541C23.9878 24.4541 23.8166 24.5231 23.6947 24.6558L22.5764 25.8871L21.2974 24.8124C21.178 24.7115 21.0328 24.6637 20.8901 24.6637C20.7162 24.6637 20.545 24.7327 20.4231 24.8681C20.1999 25.1149 20.2259 25.4917 20.4827 25.7067L21.7618 26.7841L20.6436 28.0154C20.4179 28.2622 20.4438 28.6364 20.7033 28.854C20.82 28.9522 20.9653 28.9999 21.108 28.9999C21.2818 28.9999 21.4531 28.9309 21.575 28.7983L22.6932 27.5669L23.9749 28.6417C24.0916 28.7399 24.2369 28.7903 24.3796 28.7903C24.5534 28.7903 24.7246 28.7213 24.8466 28.586C25.0723 28.3392 25.0464 27.9623 24.7869 27.7474Z" fill="black"/>
</g>
<defs>
<clipPath id="clip0_1706_14336">
<rect width="25" height="29" fill="white"/>
</clipPath>
</defs>
</svg>
