<svg width="22" height="25" viewBox="0 0 22 25" fill="none" xmlns="http://www.w3.org/2000/svg">
<g id="Calque_1" clip-path="url(#clip0_1706_13503)">
<path id="Vector" d="M14.0742 8.2082C15.1314 8.04564 15.9945 7.2106 16.1749 6.17961C16.3164 5.36461 16.0584 4.5652 15.4648 3.98623C14.8711 3.40727 14.0491 3.15342 13.2134 3.29371C12.1562 3.4674 11.3022 4.30912 11.1333 5.34011C11.0008 6.14843 11.2634 6.93894 11.8479 7.51122C12.3366 7.98552 12.9759 8.2416 13.6541 8.2416C13.7934 8.2416 13.9349 8.23047 14.0742 8.2082ZM12.2612 5.51603C12.3526 4.9482 12.8229 4.48726 13.4052 4.38928C13.4897 4.37592 13.5742 4.36924 13.6564 4.36924C14.0331 4.36924 14.387 4.50953 14.6565 4.77229C14.9853 5.09294 15.1291 5.5383 15.0492 5.99479C14.999 6.27759 14.8574 6.53366 14.6542 6.72962C14.451 6.9278 14.1861 7.06586 13.8961 7.1104C13.4326 7.18166 12.9805 7.04137 12.6563 6.72517C12.332 6.40674 12.1882 5.96584 12.2612 5.51603Z" fill="black"/>
<path id="Vector_2" d="M17.0177 22.8022H4.63747C2.71033 22.8022 1.14167 21.2724 1.14167 19.393C1.14167 17.5136 2.71033 15.9816 4.63747 15.9816H13.2114C13.3484 16.0439 13.5014 16.0773 13.6567 16.0773H13.659C14.0152 16.0773 14.3508 15.9059 14.5517 15.6164C16.0542 13.4764 19.5523 8.23016 19.5523 5.74731C19.5523 2.57861 16.9081 0 13.659 0C10.4098 0 7.76336 2.57861 7.76336 5.74731C7.76336 7.97631 10.581 12.4321 12.2456 14.8682H4.63747C2.08012 14.8682 0 16.899 0 19.393C0 21.887 2.08012 23.9156 4.63747 23.9156H17.0063C17.0817 23.733 17.1913 23.5615 17.3306 23.4145L17.4904 23.2475L17.3009 23.0961C17.1936 23.0093 17.0977 22.9113 17.0177 22.8022ZM8.90503 5.74731C8.90503 3.19097 11.0377 1.11339 13.659 1.11339C16.2802 1.11339 18.4106 3.19097 18.4106 5.74731C18.4106 7.50868 15.9651 11.6238 13.6612 14.9172C13.659 14.9149 13.6567 14.9149 13.6544 14.9149C11.3482 11.6215 8.90503 7.50868 8.90503 5.74731Z" fill="black"/>
<path id="Vector_3" d="M21.8148 23.9492L20.6891 23.0452L21.6732 22.012C21.8719 21.8049 21.8467 21.4887 21.6207 21.3083C21.5179 21.2259 21.3901 21.1836 21.2645 21.1836C21.1115 21.1836 20.9608 21.2415 20.8535 21.3551L19.8694 22.3883L18.7414 21.4842C18.6386 21.4018 18.5108 21.3617 18.3829 21.3617C18.2322 21.3617 18.0815 21.4196 17.9742 21.5332C17.7755 21.7403 17.7984 22.0565 18.0244 22.2369L19.1524 23.1387L18.1683 24.1719C17.9696 24.3812 17.9925 24.6952 18.2185 24.8778C18.3213 24.9602 18.4491 25.0003 18.577 25.0003C18.7277 25.0003 18.8784 24.9424 18.988 24.8288L19.9721 23.7956L21.0978 24.6997C21.2028 24.7821 21.3284 24.8221 21.4563 24.8221C21.6093 24.8221 21.76 24.7665 21.8673 24.6529C22.0637 24.4458 22.0408 24.1296 21.8148 23.9492Z" fill="black"/>
</g>
<defs>
<clipPath id="clip0_1706_13503">
<rect width="22" height="25" fill="white"/>
</clipPath>
</defs>
</svg>
