<svg width="26" height="25" viewBox="0 0 26 25" fill="none" xmlns="http://www.w3.org/2000/svg">
<g id="Calque_1" clip-path="url(#clip0_1706_13501)">
<path id="Vector" d="M24.1946 21.5633C25.3631 20.0474 26 18.1873 26 16.2723C26 12.6707 23.7856 9.57244 20.6335 8.23883C19.8418 3.56978 15.7315 0 10.7915 0C5.28764 0 0.809213 4.43184 0.809213 9.88197C0.809213 11.6958 1.30584 13.4517 2.24652 14.9936L0.0964045 18.6791C-0.0321348 18.9048 -0.0321348 19.1796 0.0964045 19.4023C0.227865 19.628 0.470337 19.7639 0.730337 19.7639H9.11461C10.3649 22.5671 13.0672 24.6297 16.2894 24.9537C16.3712 24.9855 16.4589 25 16.5465 25H24.9337C25.1937 25 25.4362 24.864 25.5647 24.6384C25.6962 24.4156 25.6962 24.1408 25.5647 23.9152L24.1946 21.5633ZM8.54494 18.3175H1.99528L3.73348 15.335C3.87371 15.0978 3.86202 14.7998 3.70719 14.5713C2.76944 13.1827 2.26989 11.5598 2.26989 9.88197C2.26989 5.23027 6.09393 1.44642 10.7915 1.44642C14.7411 1.44642 18.0685 4.11942 19.0297 7.73548C18.4337 7.60819 17.8173 7.54166 17.1834 7.54166C12.3222 7.54166 8.36966 11.4586 8.36966 16.2723C8.36966 16.9579 8.45146 17.629 8.60921 18.2741C8.58584 18.2857 8.56539 18.3002 8.54494 18.3175ZM16.7569 23.5536C16.7101 23.542 16.6663 23.5333 16.6166 23.5304C14.0751 23.3395 11.9045 21.8555 10.7418 19.7639C10.4818 19.3011 10.2744 18.8064 10.1225 18.2915C9.93258 17.6493 9.83034 16.9695 9.83034 16.2723C9.83034 12.2541 13.1285 8.98808 17.1834 8.98808C17.9137 8.98808 18.6207 9.09512 19.2867 9.29183C19.8097 9.44515 20.3063 9.65633 20.7708 9.91669C23.0173 11.1606 24.5393 13.5443 24.5393 16.2723C24.5393 18.0138 23.9054 19.7003 22.7573 21.0223C22.5528 21.2538 22.5207 21.5893 22.6784 21.8555L23.6688 23.5536H16.7569Z" fill="black"/>
</g>
<defs>
<clipPath id="clip0_1706_13501">
<rect width="26" height="25" fill="white"/>
</clipPath>
</defs>
</svg>
