<svg width="25" height="24" viewBox="0 0 25 24" fill="none" xmlns="http://www.w3.org/2000/svg">
<g id="Calque_1" clip-path="url(#clip0_1706_14344)">
<path id="Vector" d="M23.264 20.6984C24.3876 19.2433 25 17.4578 25 15.6196C25 12.1624 22.8708 9.18848 19.8399 7.91114C19.0787 3.42936 15.1264 0 10.3764 0C5.08427 0 0.77809 4.25686 0.77809 9.48559C0.77809 11.2267 1.25562 12.915 2.16011 14.3922L0.0926966 17.9327C-0.0308989 18.1465 -0.0308989 18.4103 0.0926966 18.6269C0.219101 18.8407 0.452247 18.974 0.702247 18.974H8.76404C9.96348 21.6647 12.5618 23.6446 15.6601 23.9528C15.7388 23.9833 15.823 24 15.9101 24H23.9747C24.2247 24 24.4579 23.8667 24.5815 23.6529C24.7079 23.4391 24.7079 23.1725 24.5815 22.9587L23.264 20.6984ZM8.21629 17.5856H1.91854L3.58989 14.7227C3.72472 14.4922 3.71348 14.209 3.56461 13.9896C2.66011 12.6539 2.18258 11.0989 2.18258 9.48559C2.18258 5.02048 5.85955 1.38841 10.3764 1.38841C14.1742 1.38841 17.3736 3.95418 18.2978 7.4252C17.7247 7.30302 17.132 7.23915 16.5225 7.23915C11.8483 7.23915 8.04775 10.999 8.04775 15.6196C8.04775 16.2805 8.1264 16.9247 8.27809 17.5439C8.25562 17.555 8.23595 17.5689 8.21629 17.5856Z" fill="black"/>
</g>
<defs>
<clipPath id="clip0_1706_14344">
<rect width="25" height="24" fill="white"/>
</clipPath>
</defs>
</svg>
