<svg width="35" height="25" viewBox="0 0 35 25" fill="none" xmlns="http://www.w3.org/2000/svg">
<g id="Calque_1" clip-path="url(#clip0_1706_14339)">
<path id="Vector" d="M17.934 0.234319L19.8159 3.95939C19.8774 4.08255 20.0004 4.16967 20.1388 4.1907L24.3454 4.78851C24.699 4.83958 24.8405 5.26316 24.5852 5.50649L21.541 8.40543C21.4395 8.50156 21.3934 8.63975 21.418 8.77794L22.1375 12.8695C22.199 13.212 21.83 13.4733 21.5133 13.3141L17.7495 11.3825C17.6234 11.3194 17.4758 11.3194 17.3497 11.3825L13.5859 13.3141C13.2691 13.4763 12.9001 13.215 12.9616 12.8695L13.6812 8.77794C13.7058 8.64275 13.6597 8.50156 13.5582 8.40543L10.5139 5.50649C10.2587 5.26316 10.4001 4.83958 10.7538 4.78851L14.9604 4.1907C15.1019 4.16967 15.2218 4.08556 15.2833 3.95939L17.1621 0.234319C17.319 -0.0781062 17.7771 -0.0781062 17.934 0.234319Z" fill="black"/>
<path id="Vector_2" d="M30.2092 8.12051L31.4853 10.6469C31.5437 10.7641 31.6606 10.8482 31.7928 10.8662L34.6464 11.2718C34.9816 11.3199 35.1169 11.7224 34.874 11.9567L32.8076 13.9244C32.7122 14.0175 32.6661 14.1497 32.6907 14.2789L33.1796 17.0577C33.2381 17.3851 32.8844 17.6345 32.5831 17.4812L30.0308 16.1685C29.9109 16.1084 29.7694 16.1084 29.6495 16.1685L27.0972 17.4812C26.7959 17.6345 26.4453 17.3851 26.5007 17.0577L26.9896 14.2789C27.0111 14.1497 26.9681 14.0175 26.8728 13.9244L24.8063 11.9567C24.5634 11.7254 24.6987 11.3199 25.0339 11.2718L27.8875 10.8662C28.0197 10.8482 28.1366 10.7641 28.195 10.6469L29.4712 8.12051C29.6218 7.82311 30.0554 7.82311 30.2061 8.12051H30.2092Z" fill="black"/>
<path id="Vector_3" d="M5.63038 8.03615L6.93112 10.6107C6.99262 10.7308 7.10947 10.8149 7.24477 10.833L10.1538 11.2445C10.4951 11.2926 10.6335 11.7041 10.3844 11.9415L8.28106 13.9452C8.18266 14.0383 8.13653 14.1735 8.16113 14.3057L8.65929 17.1355C8.71771 17.469 8.36101 17.7243 8.05351 17.5651L5.45203 16.2283C5.32903 16.1652 5.1845 16.1652 5.06458 16.2283L2.4631 17.5651C2.1556 17.7213 1.79889 17.469 1.85732 17.1355L2.35547 14.3057C2.38007 14.1735 2.33395 14.0383 2.23555 13.9452L0.126077 11.9415C-0.123001 11.7041 0.0153754 11.2926 0.356704 11.2445L3.26568 10.833C3.40098 10.8149 3.52091 10.7308 3.57934 10.6107L4.88007 8.03615C5.03383 7.73274 5.47663 7.73274 5.63038 8.03615Z" fill="black"/>
<path id="Vector_4" d="M6.38998 24.9997C6.16858 24.9997 5.95025 24.9065 5.7965 24.7263C5.5259 24.4079 5.57203 23.9332 5.89798 23.6689C9.16366 21.0253 13.2996 19.5713 17.5462 19.5713C21.7928 19.5713 25.9287 21.0253 29.1944 23.6689C29.5204 23.9332 29.5665 24.4079 29.2959 24.7263C29.0253 25.0447 28.5394 25.0898 28.2135 24.8254C25.2245 22.4071 21.433 21.0733 17.5431 21.0733C13.6532 21.0733 9.86477 22.4071 6.87276 24.8254C6.72824 24.9426 6.55604 24.9997 6.38383 24.9997H6.38998Z" fill="black"/>
</g>
<defs>
<clipPath id="clip0_1706_14339">
<rect width="35" height="25" fill="white"/>
</clipPath>
</defs>
</svg>
