<svg width="31" height="23" viewBox="0 0 31 23" fill="none" xmlns="http://www.w3.org/2000/svg">
<g id="Calque_1" clip-path="url(#clip0_1706_13496)">
<path id="Vector" d="M19.0739 13.2731C18.9121 13.2731 18.7504 13.2328 18.599 13.1523L15.5413 11.4995L12.4836 13.1523C12.1392 13.3402 11.727 13.308 11.4113 13.0718C11.0956 12.8357 10.9417 12.444 11.0069 12.0496L11.5913 8.54805L9.11799 6.06881C8.83882 5.78976 8.73968 5.37656 8.8597 4.99555C8.97971 4.61454 9.2954 4.34086 9.68153 4.28451L13.1019 3.77471L14.6308 0.587127C14.803 0.227585 15.1526 0.00488281 15.5439 0.00488281C15.9353 0.00488281 16.2823 0.227585 16.4571 0.58981L17.9859 3.7774L21.4063 4.2872C21.7925 4.34623 22.1081 4.61722 22.2282 4.99823C22.3482 5.37924 22.249 5.78976 21.9699 6.07149L19.4939 8.55341L20.0783 12.0549C20.1436 12.4494 19.9896 12.8411 19.674 13.0772C19.4965 13.2114 19.2878 13.2784 19.0765 13.2784L19.0739 13.2731ZM15.5413 10.1177C15.7031 10.1177 15.8674 10.1579 16.0135 10.2384L18.6904 11.6847L18.179 8.61781C18.1216 8.27973 18.2312 7.9336 18.4712 7.69212L20.6367 5.52145L17.6442 5.07336C17.3128 5.02238 17.0258 4.81041 16.8771 4.50185L15.5387 1.71137L14.2003 4.50185C14.0516 4.81041 13.7646 5.02506 13.4333 5.07336L10.4407 5.52145L12.6062 7.69212C12.8462 7.9336 12.9558 8.27973 12.8984 8.61781L12.387 11.6847L15.0639 10.2358C15.2126 10.1553 15.3743 10.115 15.5387 10.115L15.5413 10.1177Z" fill="black"/>
<path id="Vector_2" d="M28.4617 16.9921C28.3025 16.9921 28.1434 16.9519 27.9947 16.8741L25.9701 15.7793L23.9455 16.8741C23.6064 17.0565 23.202 17.027 22.8915 16.7962C22.581 16.5655 22.4297 16.1791 22.4949 15.7901L22.8811 13.4718L21.2426 11.8297C20.9687 11.5534 20.8721 11.1509 20.9895 10.7752C21.1069 10.3996 21.4174 10.1313 21.7957 10.0749L24.0603 9.73687L25.0726 7.62791C25.2422 7.27373 25.5866 7.05371 25.9701 7.05371C26.3536 7.05371 26.698 7.27373 26.8676 7.62791L27.8799 9.73687L30.1445 10.0749C30.5228 10.1313 30.8332 10.3996 30.9507 10.7752C31.0707 11.1509 30.9715 11.5534 30.6976 11.8297L29.0591 13.4718L29.4453 15.7901C29.5105 16.1791 29.3566 16.5655 29.0461 16.7962C28.8713 16.9277 28.6652 16.9948 28.4591 16.9948L28.4617 16.9921ZM25.9701 14.3948C26.1292 14.3948 26.2884 14.4351 26.4345 14.5129L28.0547 15.3903L27.7442 13.5335C27.6894 13.1981 27.7964 12.8601 28.0312 12.6239L29.3409 11.3092L27.5277 11.0382C27.2015 10.9899 26.9198 10.7779 26.7737 10.4747L25.9623 8.78703L25.1509 10.4747C25.0048 10.7779 24.723 10.9899 24.3969 11.0382L22.5862 11.3092L23.8986 12.6239C24.1334 12.8601 24.2429 13.2008 24.1855 13.5335L23.8751 15.3903L25.4953 14.5129C25.6414 14.4351 25.8005 14.3948 25.9597 14.3948H25.9701Z" fill="black"/>
<path id="Vector_3" d="M7.65001 17.0728C7.49086 17.0728 7.3291 17.0325 7.18039 16.952L5.11146 15.8332L3.04253 16.952C2.70076 17.1372 2.29375 17.1077 1.98328 16.8742C1.67281 16.6408 1.51888 16.2517 1.58411 15.8627L1.97807 13.4935L0.305704 11.8165C0.0291512 11.5401 -0.0673814 11.1323 0.0500231 10.754C0.170037 10.3756 0.480506 10.1073 0.861418 10.0483L3.17298 9.70215L4.20614 7.54758C4.37834 7.19072 4.72272 6.9707 5.10885 6.9707C5.49498 6.9707 5.83937 7.19072 6.01156 7.54758L7.04472 9.70215L9.35628 10.0483C9.7372 10.1046 10.0503 10.3756 10.1703 10.754C10.2903 11.1323 10.1912 11.5374 9.91461 11.8165L8.24225 13.4935L8.6362 15.8627C8.70143 16.2544 8.5475 16.6408 8.23703 16.8742C8.05962 17.0057 7.85351 17.0728 7.64479 17.0728H7.65001ZM1.64672 11.2879L3.00079 12.6456C3.23821 12.8844 3.34778 13.2278 3.29039 13.5632L2.97209 15.479L4.64445 14.5748C4.93666 14.4165 5.28887 14.4165 5.58108 14.5748L7.25344 15.479L6.93514 13.5632C6.87775 13.2278 6.98732 12.8844 7.22474 12.6456L8.57881 11.2879L6.70816 11.0089C6.37943 10.9606 6.09766 10.7486 5.94895 10.4427L5.11146 8.69865L4.27398 10.4427C4.12787 10.7486 3.84349 10.9606 3.51476 11.0089L1.64411 11.2879H1.64672Z" fill="black"/>
<path id="Vector_4" d="M6.07409 22.9998C5.88624 22.9998 5.701 22.9166 5.57055 22.7557C5.34096 22.4712 5.3801 22.0473 5.65665 21.8112C8.42739 19.45 11.9365 18.1514 15.5395 18.1514C19.1425 18.1514 22.6516 19.45 25.4223 21.8112C25.6989 22.0473 25.738 22.4712 25.5084 22.7557C25.2788 23.0401 24.8666 23.0803 24.5901 22.8442C22.0541 20.6843 18.8373 19.4929 15.5369 19.4929C12.2365 19.4929 9.02224 20.6843 6.4837 22.8442C6.36108 22.9488 6.21497 22.9971 6.06887 22.9971L6.07409 22.9998Z" fill="black"/>
</g>
<defs>
<clipPath id="clip0_1706_13496">
<rect width="31" height="23" fill="white"/>
</clipPath>
</defs>
</svg>
