<svg width="22" height="19" viewBox="0 0 22 19" fill="none" xmlns="http://www.w3.org/2000/svg">
<g id="Calque_1" clip-path="url(#clip0_1705_11640)">
<path id="Vector" d="M21.4279 2.41454H10.7071C10.4737 1.04689 9.24943 0 7.77574 0C6.30206 0 5.08009 1.04689 4.84439 2.41454H0.572082C0.256293 2.41454 0 2.66401 0 2.97139C0 3.27878 0.256293 3.52825 0.572082 3.52825H4.87643C5.17391 4.82016 6.36156 5.78687 7.77574 5.78687C9.18993 5.78687 10.3776 4.82016 10.6751 3.52825H21.4279C21.7437 3.52825 22 3.27878 22 2.97139C22 2.66401 21.7437 2.41454 21.4279 2.41454ZM9.48284 3.52825C9.21968 4.19871 8.55378 4.67315 7.77574 4.67315C6.99771 4.67315 6.33181 4.19871 6.06865 3.52825C5.99085 3.33224 5.94737 3.11841 5.94737 2.89343C5.94737 2.72638 5.97025 2.566 6.01602 2.41454C6.23112 1.66389 6.9405 1.11372 7.77574 1.11372C8.61098 1.11372 9.32037 1.66389 9.53547 2.41454C9.58124 2.566 9.60412 2.72638 9.60412 2.89343C9.60412 3.11841 9.56064 3.33224 9.48284 3.52825Z" fill="black"/>
<path id="Vector_2" d="M21.4279 8.98306H17.8146C17.5469 7.65106 16.3387 6.64648 14.897 6.64648C13.4554 6.64648 12.2471 7.65106 11.9794 8.98306H0.572082C0.256293 8.98306 0 9.23253 0 9.53992C0 9.84731 0.256293 10.0968 0.572082 10.0968H11.9794C12.2471 11.4266 13.4554 12.4334 14.897 12.4334C16.3387 12.4334 17.5469 11.4266 17.8146 10.0968H21.4279C21.7437 10.0968 22 9.84731 22 9.53992C22 9.23253 21.7437 8.98306 21.4279 8.98306ZM16.6316 10.0968C16.3936 10.8051 15.7048 11.3196 14.897 11.3196C14.0892 11.3196 13.4005 10.8051 13.1625 10.0968C13.1007 9.92081 13.0687 9.73371 13.0687 9.53992C13.0687 9.34613 13.1007 9.1568 13.1625 8.98306C13.4005 8.27251 14.0892 7.7602 14.897 7.7602C15.7048 7.7602 16.3936 8.27251 16.6316 8.98306C16.6934 9.1568 16.7254 9.34391 16.7254 9.53992C16.7254 9.73593 16.6934 9.92081 16.6316 10.0968Z" fill="black"/>
<path id="Vector_3" d="M21.4279 15.5495H13.0938C12.8261 14.2197 11.6201 13.2129 10.1762 13.2129C8.73227 13.2129 7.52632 14.2197 7.25858 15.5495H0.572082C0.256293 15.5495 0 15.7989 0 16.1063C0 16.4137 0.256293 16.6632 0.572082 16.6632H7.25858C7.52632 17.9952 8.73455 18.9998 10.1762 18.9998C11.6178 18.9998 12.8261 17.9952 13.0938 16.6632H21.4279C21.7437 16.6632 22 16.4137 22 16.1063C22 15.7989 21.7437 15.5495 21.4279 15.5495ZM11.913 16.6632C11.6728 17.3737 10.984 17.886 10.1762 17.886C9.36842 17.886 8.68192 17.3737 8.44165 16.6632C8.37986 16.4894 8.34783 16.3023 8.34783 16.1063C8.34783 15.9103 8.37986 15.7254 8.44165 15.5495C8.68192 14.8411 9.36842 14.3266 10.1762 14.3266C10.984 14.3266 11.6728 14.8411 11.913 15.5495C11.9725 15.7254 12.0046 15.9125 12.0046 16.1063C12.0046 16.3001 11.9725 16.4894 11.913 16.6632Z" fill="black"/>
</g>
<defs>
<clipPath id="clip0_1705_11640">
<rect width="22" height="19" fill="white"/>
</clipPath>
</defs>
</svg>
