<svg width="29" height="23" viewBox="0 0 29 23" fill="none" xmlns="http://www.w3.org/2000/svg">
<g id="Calque_1" clip-path="url(#clip0_1706_14323)">
<g id="Group">
<path id="Vector" d="M6.33385 2.43982C6.33385 2.73912 6.36703 3.02925 6.43037 3.31022H0.75403C0.337805 3.31022 0 2.96817 0 2.54671C0 2.12526 0.337805 1.7832 0.75403 1.7832H6.38814C6.35195 1.99699 6.33385 2.21688 6.33385 2.43982Z" fill="black"/>
<path id="Vector_2" d="M29 2.54671C29 2.96817 28.6622 3.31022 28.246 3.31022H14.0732C14.1366 3.02925 14.1698 2.73912 14.1698 2.43982C14.1698 2.21688 14.1517 1.99699 14.1155 1.7832H28.246C28.6622 1.7832 29 2.12526 29 2.54671Z" fill="black"/>
</g>
<g id="Group_2">
<path id="Vector_3" d="M15.72 11.5535C15.72 11.8162 15.7441 12.0697 15.7924 12.3171H0.75403C0.337805 12.3171 0 11.975 0 11.5535C0 11.1321 0.337805 10.79 0.75403 10.79H15.7924C15.7441 11.0374 15.72 11.2909 15.72 11.5535Z" fill="black"/>
<path id="Vector_4" d="M28.9999 11.5535C28.9999 11.975 28.6621 12.3171 28.2459 12.3171H23.4834C23.5317 12.0697 23.5558 11.8162 23.5558 11.5535C23.5558 11.2909 23.5317 11.0374 23.4834 10.79H28.2459C28.6621 10.79 28.9999 11.1321 28.9999 11.5535Z" fill="black"/>
</g>
<g id="Group_3">
<path id="Vector_5" d="M9.57015 19.7959C9.52189 20.0433 9.49776 20.2968 9.49776 20.5594C9.49776 20.8221 9.52189 21.0755 9.57015 21.3229H0.75403C0.337805 21.3229 0 20.9809 0 20.5594C0 20.138 0.337805 19.7959 0.75403 19.7959H9.57015Z" fill="black"/>
<path id="Vector_6" d="M29.0005 20.5594C29.0005 20.9809 28.6627 21.3229 28.2464 21.3229H17.2617C17.31 21.0755 17.3341 20.8221 17.3341 20.5594C17.3341 20.2968 17.31 20.0433 17.2617 19.7959H28.2464C28.6627 19.7959 29.0005 20.138 29.0005 20.5594Z" fill="black"/>
</g>
<path id="Vector_7" d="M12.6616 2.44018C12.6616 2.74864 12.6043 3.04183 12.5017 3.31058C12.1548 4.22985 11.2772 4.88342 10.2517 4.88342C9.2262 4.88342 8.34851 4.22985 8.00165 3.31058C7.8991 3.04183 7.8418 2.74864 7.8418 2.44018C7.8418 2.21113 7.87196 1.99124 7.93228 1.78356C8.2158 0.757403 9.14778 0 10.2517 0C11.3556 0 12.2876 0.757403 12.5711 1.78356C12.6314 1.99124 12.6616 2.21113 12.6616 2.44018Z" fill="black"/>
<path id="Vector_8" d="M22.0483 11.5535C22.0483 11.8222 22.0061 12.0788 21.9246 12.317C21.6079 13.2912 20.7031 13.9936 19.6384 13.9936C18.5737 13.9936 17.6659 13.2912 17.3522 12.317C17.2707 12.0788 17.2285 11.8222 17.2285 11.5535C17.2285 11.2847 17.2707 11.0282 17.3522 10.79C17.6659 9.81571 18.5737 9.11328 19.6384 9.11328C20.7031 9.11328 21.6079 9.81571 21.9246 10.79C22.0061 11.0282 22.0483 11.2847 22.0483 11.5535Z" fill="black"/>
<path id="Vector_9" d="M15.8256 20.5603C15.8256 20.826 15.7834 21.0825 15.702 21.3238C15.3853 22.295 14.4804 23.0005 13.4157 23.0005C12.351 23.0005 11.4432 22.295 11.1265 21.3238C11.0481 21.0825 11.0059 20.826 11.0059 20.5603C11.0059 20.2946 11.0481 20.0381 11.1265 19.7968C11.4432 18.8225 12.348 18.1201 13.4157 18.1201C14.4834 18.1201 15.3883 18.8225 15.705 19.7968C15.7834 20.0381 15.8256 20.2946 15.8256 20.5603Z" fill="black"/>
</g>
<defs>
<clipPath id="clip0_1706_14323">
<rect width="29" height="23" fill="white"/>
</clipPath>
</defs>
</svg>
