<?xml version="1.0" encoding="utf-8"?>
<!-- Generator: Adobe Illustrator 27.2.0, SVG Export Plug-In . SVG Version: 6.00 Build 0)  -->
<svg version="1.1" id="Calque_2_00000099656680539484070350000015333084736431877048_"
	 xmlns="http://www.w3.org/2000/svg" xmlns:xlink="http://www.w3.org/1999/xlink" x="0px" y="0px" viewBox="0 0 481 481"
	 style="enable-background:new 0 0 481 481;" xml:space="preserve">
<style type="text/css">
	.st1{fill:#303030;}
	.st0{fill:#FFFFFF;}
</style>
<path class="st0" d="M108.1,0h264.7C432.6,0,481,48.4,481,108.1v264.7c0,59.7-48.4,108.1-108.1,108.1H108.1
	C48.4,481,0,432.6,0,372.9V108.1C0,48.4,48.4,0,108.1,0z"/>
<path class="st1" d="M328.2,160.4l-1.8-37.6c-19.2,0.9-35.8,4.6-50.3,10c-1.5-8.2-3.2-16.3-4.9-24.4l-36.9,7.6
	c1.8,8.7,4.3,21,7,35.4c-19.6,14.2-33.3,31.5-43.3,46.3l31.1,21.2c5.5-8.1,11.7-16.2,19.1-23.8c6.3,48.7,8,102.5-11.5,123.1
	c-4.2,4.5-11.9,10.1-29.7,7.5c-9.2-1.3-33.6-4.9-32-52.1l-37.6-1.2c-1.7,51.4,21.7,84.4,64.2,90.6c4.8,0.7,9.4,1,13.6,1
	c24.4,0,39.8-10.4,48.8-20c31.3-33.3,29.8-101.3,18.6-173.4C295.3,165.1,310.2,161.3,328.2,160.4L328.2,160.4L328.2,160.4z"/>
</svg>
