<svg width="14" height="8" viewBox="0 0 14 8" fill="none" xmlns="http://www.w3.org/2000/svg">
<path d="M13.723 1.58525L7.51715 7.79722C7.44327 7.87096 7.36324 7.92331 7.27704 7.95427C7.19085 7.98524 7.0985 8.00048 7 7.99999C6.90149 7.99999 6.80915 7.98475 6.72295 7.95427C6.63676 7.9238 6.55673 7.87145 6.48285 7.79722L0.258575 1.58525C0.0861917 1.41321 0 1.19815 0 0.940091C0 0.682026 0.0923483 0.460829 0.277045 0.276497C0.461741 0.0921655 0.677221 0 0.923483 0C1.16974 0 1.38522 0.0921655 1.56992 0.276497L7 5.69584L12.4301 0.276497C12.6025 0.104455 12.815 0.0184326 13.0677 0.0184326C13.3203 0.0184326 13.5388 0.110599 13.723 0.29493C13.9077 0.479261 14 0.694315 14 0.940091C14 1.18587 13.9077 1.40092 13.723 1.58525Z" fill="#FF6147"/>
</svg>
