<svg width="187" height="435" viewBox="0 0 187 435" fill="none" xmlns="http://www.w3.org/2000/svg">
<path d="M-95.03 218.936C-95.03 160.022 -77.1433 101.064 -42.1052 52.2007C-39.6195 48.7342 -34.8166 47.9671 -31.2981 50.3786L-22.2269 56.5958C-18.4554 59.1807 -17.6255 64.3902 -20.2677 68.1217C-76.9862 148.224 -83.488 257.614 -35.8912 343.055C-23.9541 364.473 -11.0109 380.218 3.69623 391.198C14.4408 399.218 27.1853 405.492 41.557 409.856C90.5848 424.728 147.96 411.495 184.342 376.916C216.912 345.968 231.358 303.286 246.661 258.116C251.667 243.338 256.835 228.065 262.673 213.358C269.02 197.365 276.883 180.913 291.304 168.895C306.719 156.051 326.482 150.98 343.785 147.701C400.077 137.045 457.386 138.789 513.027 141.04C517.455 141.219 520.89 144.967 520.69 149.394L520.233 159.487C520.034 163.887 516.316 167.298 511.915 167.12C457.883 164.937 402.299 163.244 349.151 173.294C335.413 175.888 319.961 179.733 309.427 188.508C299.552 196.74 293.478 209.737 288.398 222.557C282.808 236.662 277.74 251.629 272.833 266.1C257.207 312.238 241.059 359.944 203.795 395.361C160.332 436.664 91.7773 452.479 33.1974 434.718C15.683 429.41 0.0443115 421.674 -13.284 411.72C-31.084 398.44 -46.4246 379.982 -60.1877 355.262C-83.5401 313.335 -95.03 266.147 -95.03 218.948V218.936Z" fill="#17403B"/>
<path d="M272.821 408.24C272.821 383.685 279.603 359.508 286.795 338.149C295.689 311.743 308.831 277.764 331.637 249.211C355.921 218.818 387.869 199.028 421.618 193.473C456.558 187.721 491.799 197.522 521.247 206.755C525.557 208.106 527.872 212.768 526.37 217.028L522.972 226.672C521.536 230.747 517.126 232.941 513.004 231.646C485.444 222.985 455.001 214.457 426.314 219.184C399.446 223.607 373.597 239.87 353.536 264.98C333.252 290.372 321.203 321.673 312.967 346.098C303.949 372.847 296.434 401.306 302.372 428.243C309.154 458.99 333.699 487.837 375.336 513.985C379.398 516.532 383.646 519.091 387.745 521.568C400.303 529.14 413.284 536.971 424.997 546.819C444.598 563.319 458.635 583.663 472.199 603.347C479.888 614.492 488.608 627.135 491.415 642.562C493.924 656.29 491.415 671.634 484.012 688.181C472.311 714.289 452.962 735.719 434.894 754.681C431.957 757.764 427.116 757.987 423.894 755.203L415.695 748.118C412.229 745.123 411.984 739.841 415.141 736.522C431.557 719.262 448.879 699.938 458.734 677.967C464.038 666.126 465.938 655.712 464.349 647.02C462.51 636.913 455.753 627.124 449.219 617.653C436.636 599.408 423.631 580.549 406.775 566.361C396.713 557.893 385.211 550.959 373.025 543.611C368.815 541.075 364.455 538.445 360.182 535.756C312.297 505.682 283.802 471.314 275.479 433.597C273.616 425.176 272.821 416.685 272.821 408.252V408.24Z" fill="#17403B"/>
<path d="M370.647 404.962C370.651 404.954 370.653 404.945 370.653 404.936C370.656 376.847 382.047 346.719 403.62 318.43C419.407 297.731 436.201 283.248 454.958 274.155C476.251 263.833 499.467 261.244 519.91 266.7C524.29 267.868 526.317 272.721 524.533 276.888L520.485 286.347C518.792 290.305 514.271 292.153 510.06 291.261C496.853 288.465 481.464 290.602 467.454 297.401C452.647 304.584 439.046 316.472 425.867 333.75C413.346 350.155 393.235 382.86 399.16 417.475C404.837 450.687 431.866 473.649 447.48 484.382C473.317 502.155 504.805 513.348 532.592 523.219C534.287 523.819 535.859 522.359 535.131 520.715C531.307 512.081 518.881 504.252 507.675 497.19L504.619 495.256C478.782 478.85 461.28 458.553 454.014 436.546C444.412 407.497 453.231 373.543 475.938 352.054C496.691 332.414 528.37 323.828 557.006 329.529C561.43 330.409 563.818 335.059 562.388 339.338L559.151 349.029C557.78 353.132 553.397 355.348 549.128 354.649C529.96 351.513 509.151 357.476 495.353 370.535C479.714 385.336 473.64 408.724 480.248 428.738C487.03 449.295 505.563 464.462 519.898 473.567L522.879 475.454C540.741 486.705 565.162 502.084 563.758 528.007C563.435 533.845 561.584 538.775 558.28 542.667C553.051 548.812 542.666 554.673 522.966 547.668C493.551 537.219 460.2 525.366 431.357 505.528C398.49 482.919 377.423 453.14 372.032 421.673C371.101 416.217 370.641 410.643 370.64 404.987C370.64 404.978 370.643 404.969 370.647 404.962Z" fill="#17403B"/>
<path d="M-132.509 392.515C-132.507 392.51 -132.503 392.506 -132.498 392.503L-115.778 382.554C-112.105 380.369 -107.375 381.466 -104.899 384.949C-60.0738 448.015 19.1656 489.698 99.2431 491.777C113.901 492.154 129.142 491.317 143.886 490.515C167.599 489.217 192.131 487.861 216.676 491.246C225.061 492.402 235.979 494.418 245.966 499.855C253.456 503.924 259.406 509.338 264.673 514.114L362.145 602.663C368.616 608.548 376.665 615.86 381.05 626.038C384.255 633.492 384.876 640.922 385.41 647.48L395.181 765.791C395.546 770.219 392.233 774.097 387.802 774.427L376.356 775.279C371.975 775.605 368.151 772.338 367.789 767.96L358.008 649.52C357.586 644.413 357.189 639.601 355.599 635.91C353.437 630.874 348.195 626.121 343.127 621.521L245.656 532.973C241.134 528.868 236.874 524.988 232.303 522.511C226.328 519.268 218.701 517.912 212.726 517.086C190.926 514.091 168.841 515.305 145.464 516.591C130.148 517.428 114.323 518.301 98.4854 517.888C53.1344 516.709 7.57227 504.372 -33.2697 482.212C-74.1061 460.054 -108.423 429.041 -132.508 392.546C-132.514 392.536 -132.514 392.525 -132.509 392.515Z" fill="#17403B"/>
<path d="M-122.955 490.503C-122.954 490.503 -122.953 490.502 -122.952 490.502L-105.985 480.923C-102.261 478.82 -97.5463 480.021 -95.2641 483.639C-81.1655 505.988 -64.9538 529.929 -42.0892 544.448C-14.1035 562.21 20.8755 565.17 57.9164 568.295C69.5803 569.286 81.6292 570.3 93.3923 571.822C150.047 579.134 204.776 599.396 251.692 630.414C259.965 635.886 269.567 642.656 277.976 651.407C295.329 669.44 306.136 693.759 312.011 727.914C313.626 737.29 314.806 746.761 315.949 755.925C317.626 769.308 319.22 782.083 322.026 794.527C323.015 798.914 320.412 803.379 316.046 804.461L304.984 807.204C300.773 808.248 296.484 805.748 295.499 801.523C292.182 787.292 290.387 772.947 288.646 759.003C287.541 750.122 286.386 740.947 284.87 732.125C279.902 703.194 271.256 683.133 257.667 669.015C251.084 662.163 242.997 656.49 235.967 651.844C192.615 623.172 142.023 604.456 89.6783 597.686C78.5361 596.247 66.8103 595.256 55.4694 594.301C16.6149 591.022 -23.5563 587.626 -57.3801 566.149C-87.6355 546.939 -106.404 516.963 -122.96 490.512C-122.963 490.508 -122.96 490.503 -122.955 490.503Z" fill="#17403B"/>
<path d="M-166.989 555.747C-166.994 555.747 -166.997 555.741 -166.994 555.737L-157.125 539.729C-154.881 536.088 -150.167 534.854 -146.431 536.938C-124.669 549.074 -102.507 561.835 -82.5212 577.731C-69.9382 587.744 -52.5854 603.571 -47.2814 625.401C-46.8342 627.218 -45.679 632.018 -47.9521 637.219C-49.9644 641.819 -53.9641 645.274 -58.9328 646.701C-67.5533 649.166 -76.0745 644.897 -80.3847 642.137C-92.8187 634.164 -112.693 637.632 -122.904 649.555C-133.102 661.467 -134.12 680.715 -125.338 695.328C-116.792 709.539 -99.5263 719.859 -80.2978 722.253C-62.3487 724.482 -42.2506 720.26 -23.6805 710.353C-15.6065 706.048 -7.85544 700.8 0.355194 695.245C17.9192 683.357 36.0919 671.068 59.0096 667.329C74.7725 664.758 92.3241 666.503 112.671 672.66C151.848 684.501 186.703 707.381 210.813 737.078C234.543 766.304 247.775 801.554 248.538 837.157C248.633 841.566 244.933 845.033 240.526 844.908L229.044 844.583C224.618 844.457 221.162 840.759 221.009 836.334C219.996 807.036 208.579 777.064 189.051 753.012C168.319 727.478 138.234 707.782 104.336 697.533C88.2871 692.674 74.9837 691.212 63.6677 693.063C46.9359 695.788 32.0549 705.86 16.3168 716.51C7.8826 722.218 -0.849716 728.115 -10.2155 733.115C-33.9158 745.758 -60.0755 751.089 -83.8503 748.129C-111.848 744.65 -136.269 729.754 -149.188 708.277C-163.621 684.277 -161.572 653.365 -144.219 633.091C-134.656 621.933 -120.714 614.931 -106.169 612.688C-98.8201 611.554 -94.3429 602.376 -100.16 597.745C-120.419 581.635 -144.094 568.473 -166.986 555.747C-166.987 555.747 -166.988 555.747 -166.989 555.747Z" fill="#17403B"/>
<path d="M-136.865 801.272C-136.865 801.266 -136.86 801.26 -136.854 801.26C-84.1282 797.697 -31.5892 789.041 19.3104 775.538L22.0059 774.819C36.9242 770.832 52.3641 766.716 69.1207 768.013C92.2 769.783 115.056 782.013 135.203 803.36C143.973 812.653 151.538 822.69 158.841 832.408C162.927 837.832 166.855 843.05 170.925 848.073C173.808 851.632 173.324 856.9 169.726 859.735L161.16 866.483C157.815 869.119 152.983 868.676 150.282 865.382C145.444 859.48 140.907 853.451 136.483 847.575C129.291 838.022 122.496 829 114.733 820.779C104.025 809.434 87.0326 795.576 66.9097 794.031C55.0596 793.123 42.6132 796.437 29.4464 799.951L26.7137 800.683C-23.4164 813.982 -75.0875 822.732 -126.994 826.729C-131.376 827.066 -135.18 823.765 -135.509 819.381L-136.865 801.272Z" fill="#17403B"/>
<path d="M-14.3271 294.228C-14.3271 280.288 -11.2714 266.984 -8.30261 254.047L-7.78093 251.758C1.72154 210.173 9.06267 167.644 14.0437 125.328L14.1555 124.349C15.3852 113.899 16.764 102.058 21.8196 90.9485C34.1169 63.8933 66.5868 46.6152 100.771 48.9504C114.719 49.8948 127.892 53.968 138.946 60.4655C140.397 61.3186 142.238 61.1946 143.513 60.0956C163.655 42.689 184.423 24.7551 199.596 3.87709C202.109 0.418811 206.832 -0.706517 210.517 1.46054L220.073 7.08015C224.007 9.39354 225.223 14.5339 222.553 18.2351C205.613 41.7175 183.48 60.8435 162.009 79.3905C161.309 79.9947 161.178 81.0276 161.682 81.8027C174.289 101.178 176.177 126.8 167.474 159.978C162.543 178.79 155.786 197.282 147.389 214.962C139.861 230.801 128.458 249.871 106.994 256.783C101.33 258.611 96.1748 259.071 91.2559 258.186C82.2876 256.582 74.785 250.685 68.9469 240.684C52.0287 211.659 53.3827 173.364 72.5491 138.254C82.7314 119.606 96.4622 103.62 111.837 88.6363C115.898 84.6791 114.79 77.9021 109.277 76.5801C105.914 75.7738 102.407 75.2354 98.8082 74.9913C76.4494 73.4699 54.6869 84.5326 47.0601 101.304C43.6318 108.828 42.5884 117.78 41.4828 127.25L41.3711 128.241C36.2906 171.43 28.8005 214.855 19.0993 257.302L18.5651 259.613C15.4225 273.318 12.4413 286.267 13.3357 298.828C14.2424 311.825 19.8321 322.805 28.2912 328.207C35.5453 332.842 45.7558 334.186 55.7179 334.941C81.4926 336.911 116.285 335.012 135.626 314.785C144.172 305.845 149.414 293.58 153.798 281.644C159.276 266.76 163.959 251.133 168.493 236.025C174.878 214.749 181.473 192.742 190.578 171.583C209.596 127.392 237.544 97.4588 271.38 85.0044C302.024 73.7412 333.873 77.3147 364.666 80.7822C378.853 82.3726 392.376 83.8977 405.624 84.0444C410.031 84.0932 413.732 87.5168 413.902 91.9209L414.291 102.007C414.462 106.434 411.002 110.169 406.572 110.143C391.336 110.055 376.166 108.349 361.437 106.693C332.706 103.462 305.577 100.407 281.305 109.335C247.68 121.707 227.247 155.379 216.018 181.443C207.484 201.257 201.099 222.557 194.926 243.161C190.28 258.634 185.486 274.627 179.734 290.242C174.393 304.772 167.81 319.916 155.972 332.311C134.719 354.554 99.2926 364.449 53.5069 360.947C39.8183 359.897 25.4342 357.833 12.9382 349.849C-2.75023 339.824 -12.6129 321.85 -14.1035 300.538C-14.2525 298.415 -14.3271 296.304 -14.3271 294.217V294.228ZM143.749 108.493C142.507 103.371 136.311 102.217 132.524 105.882C118.339 119.615 105.822 134.016 96.945 150.26C85.4178 171.371 78.3251 202.896 92.9825 228.053C93.8474 229.541 94.5907 230.566 95.1781 231.262C95.9115 232.13 97.0658 232.418 98.1498 232.074C107.081 229.197 114.534 220.611 122.322 204.229C130.048 187.977 136.259 170.97 140.793 153.68C145.62 135.248 146.615 120.307 143.749 108.493Z" fill="#17403B"/>
</svg>
