<svg width="16" height="16" viewBox="0 0 16 16" fill="none" xmlns="http://www.w3.org/2000/svg">
<path d="M8 15.1111C7.06103 15.1111 6.18141 14.9283 5.36113 14.5628C4.54085 14.1973 3.82723 13.7041 3.22028 13.0832C2.61333 12.4613 2.13158 11.7308 1.77502 10.8915C1.41847 10.0523 1.23994 9.15177 1.23944 8.18999C1.23944 7.22872 1.41797 6.32821 1.77502 5.48845C2.13208 4.64869 2.61383 3.91812 3.22028 3.29676C3.82773 2.6754 4.54135 2.1822 5.36113 1.81718C6.18091 1.45215 7.06053 1.26938 8 1.26887C8.93897 1.26887 9.81859 1.45164 10.6389 1.81718C11.4592 2.18272 12.1728 2.67617 12.7797 3.29753C13.3867 3.91889 13.8687 4.64945 14.2257 5.48922C14.5828 6.32898 14.7611 7.22924 14.7606 8.18999C14.7606 9.15126 14.582 10.0518 14.225 10.8915C13.8679 11.7313 13.3862 12.4619 12.7797 13.0832C12.1723 13.7046 11.4587 14.198 10.6389 14.5636C9.81909 14.9291 8.93947 15.1116 8 15.1111ZM10.1033 11.4198L11.1549 10.3432L8.75117 7.88239V4.34492H7.24883V8.4976L10.1033 11.4198ZM3.19249 0L4.24413 1.07662L1.05164 4.34492L0 3.26831L3.19249 0ZM12.8075 0L16 3.26831L14.9484 4.34492L11.7559 1.07662L12.8075 0ZM8 13.5731C9.46479 13.5731 10.7075 13.0507 11.7281 12.0058C12.7487 10.961 13.2587 9.68905 13.2582 8.18999C13.2582 6.69041 12.7479 5.41821 11.7273 4.37338C10.7067 3.32855 9.46429 2.80639 8 2.8069C6.53521 2.8069 5.29252 3.32931 4.27193 4.37415C3.25133 5.41898 2.74128 6.69093 2.74178 8.18999C2.74178 9.68957 3.25208 10.9618 4.27268 12.0066C5.29327 13.0514 6.53571 13.5736 8 13.5731Z" fill="#FF6147"/>
</svg>
