<svg class="h-full w-auto" viewBox="0 0 481 116" fill="none" xmlns="http://www.w3.org/2000/svg">
    <path fill-rule="evenodd" clip-rule="evenodd" d="M29.1834 114.865C31.3722 115.174 33.4367 115.321 35.3694 115.321C46.4295 115.321 53.4226 110.621 57.5129 106.306C71.7243 91.3047 71.025 60.5991 65.9428 28.0606C71.6553 25.5327 78.4229 23.8532 86.5796 23.4701L85.7724 6.51391C77.058 6.92517 69.5094 8.55169 62.9464 10.9775C62.2412 7.30451 61.5039 3.63882 60.7495 0L44.0312 3.43446C44.8405 7.33441 45.9933 12.8924 47.1796 19.3889C38.2916 25.8183 32.0979 33.6166 27.5223 40.3029L41.6405 49.8576V49.8499C44.1427 46.1938 46.9482 42.4995 50.2887 39.0781C53.1379 61.0617 53.8936 85.3677 45.0868 94.6677C43.1774 96.6821 39.7003 99.2213 31.6283 98.0636L31.6239 98.063C27.4526 97.4605 16.4005 95.8642 17.1065 74.5626L0.0389955 73.9992C-0.729393 97.1915 9.88834 112.087 29.1834 114.865ZM385.491 19.4954C385.529 25.5077 390.194 30.0535 396.31 30.0381V30.0458C402.55 30.0226 407.269 25.4999 407.308 19.4877C407.355 13.406 402.527 8.62861 396.388 8.67492C390.147 8.71351 385.452 13.3751 385.491 19.4954ZM180.401 108.112C185.616 113.337 192.609 115.992 201.201 115.992L201.194 116C211.066 116 218.541 113.322 224.051 107.811C235.189 96.6744 235.088 77.3951 234.941 50.7066C234.925 47.6812 234.91 44.5554 234.91 41.3525H219.387C219.387 44.5863 219.402 47.7352 219.418 50.7838C219.534 72.0003 219.627 90.3303 213.045 96.9136C210.601 99.3602 206.992 100.549 201.194 100.549C195.396 100.549 192.842 98.6579 191.422 97.2378C184.01 89.7977 184.196 68.9208 184.398 46.809C184.413 45.0262 184.429 43.2279 184.444 41.4065L168.921 41.2985C168.906 43.1122 168.89 44.9027 168.875 46.6778C168.634 73.1965 168.432 96.1033 180.401 108.112ZM318.524 115.051C313.084 115.051 307.86 112.512 304.259 108.035C301.402 104.485 299.679 99.8542 299.136 94.2741C297.941 82.0721 302.287 67.8017 310.049 57.0584C309.723 56.5568 309.397 56.0551 309.063 55.5457C307.425 53.0451 305.733 50.4596 304.049 47.6812L317.337 39.7009C318.625 41.8156 319.96 43.884 321.272 45.8906C328.451 40.9512 336.516 38.9214 344.913 39.9787C355.229 41.2753 363.828 48.6922 368.516 60.3308C374.67 75.602 374.306 95.9577 374.066 109.425L374.066 109.432C374.035 110.991 374.011 112.427 374.004 113.723L358.481 113.592C358.496 112.257 358.519 110.767 358.55 109.162L358.552 109.087C358.754 97.5941 359.091 78.4255 354.111 66.0729C353.179 63.7576 349.617 56.1323 342.965 55.2987C338.169 54.6967 333.605 55.9856 329.359 59.1345C330.438 61.257 331.377 63.3948 332.107 65.6021C335.126 74.7015 337.571 83.0832 336.973 93.51C336.787 96.7053 336.329 100.888 334.381 104.909C331.672 110.52 326.48 114.271 320.504 114.943C319.844 115.02 319.192 115.051 318.532 115.051H318.524ZM318.361 73.5207C315.49 79.8417 314.007 86.8418 314.589 92.7768C314.838 95.2929 315.459 97.2378 316.39 98.3955C317.081 99.2522 317.934 99.6998 318.749 99.5995C319.432 99.5223 319.984 99.0592 320.387 98.218C321.148 96.6358 321.365 94.3976 321.474 92.6225C321.862 85.9311 320.449 80.0732 318.369 73.5207H318.361ZM82.4505 77.4954C82.4505 98.272 99.4481 115.174 120.342 115.174C141.236 115.174 158.234 98.272 158.234 77.4954C158.234 56.7188 141.236 39.8166 120.342 39.8166C99.4481 39.8166 82.4505 56.7188 82.4505 77.4954ZM99.5257 77.4954C99.5257 66.0806 108.863 56.796 120.342 56.796C131.821 56.796 141.158 66.0806 141.158 77.4954C141.158 88.9102 131.821 98.1948 120.342 98.1948C108.863 98.1948 99.5257 88.9102 99.5257 77.4954ZM265.653 45.4713V41.7307H250.13V113.808H265.653V72.7104C266.266 66.8905 268.26 62.7216 271.738 59.9912C276.853 55.9702 284.995 55.3991 290.901 56.2094L293.02 40.9203C287.963 40.2226 275.968 39.4508 265.653 45.4713ZM388.634 41.7307H404.157V112.936H388.634V41.7307ZM422.358 113.862L416.653 100.904L457.385 57.151H422.35V41.7152H475.152L480.841 54.6736L440.124 98.4109L475.92 98.38L475.935 113.816L422.358 113.862Z" fill="#F6F0D8"/>
</svg>
