<svg width="20" height="16" viewBox="0 0 20 16" fill="none" xmlns="http://www.w3.org/2000/svg">
<g opacity="0.75">
<path d="M1.91667 15.3333C1.38958 15.3333 0.93821 15.1455 0.562543 14.7698C0.186877 14.3942 -0.000637262 13.9431 1.62705e-06 13.4167V1.91667C1.62705e-06 1.38959 0.187835 0.93821 0.563502 0.562543C0.939168 0.186877 1.39022 -0.000637262 1.91667 1.62705e-06H17.25C17.7771 1.62705e-06 18.2285 0.187835 18.6041 0.563501C18.9798 0.939168 19.1673 1.39022 19.1667 1.91667V13.4167C19.1667 13.9438 18.9788 14.3951 18.6032 14.7708C18.2275 15.1465 17.7764 15.334 17.25 15.3333H1.91667ZM9.58333 8.625L1.91667 3.83334V13.4167H17.25V3.83334L9.58333 8.625ZM9.58333 6.70834L17.25 1.91667H1.91667L9.58333 6.70834ZM1.91667 3.83334V1.91667V13.4167V3.83334Z" fill="#00231E"/>
<path d="M1.91667 15.3333C1.38958 15.3333 0.93821 15.1455 0.562543 14.7698C0.186877 14.3942 -0.000637262 13.9431 1.62705e-06 13.4167V1.91667C1.62705e-06 1.38959 0.187835 0.93821 0.563502 0.562543C0.939168 0.186877 1.39022 -0.000637262 1.91667 1.62705e-06H17.25C17.7771 1.62705e-06 18.2285 0.187835 18.6041 0.563501C18.9798 0.939168 19.1673 1.39022 19.1667 1.91667V13.4167C19.1667 13.9438 18.9788 14.3951 18.6032 14.7708C18.2275 15.1465 17.7764 15.334 17.25 15.3333H1.91667ZM9.58333 8.625L1.91667 3.83334V13.4167H17.25V3.83334L9.58333 8.625ZM9.58333 6.70834L17.25 1.91667H1.91667L9.58333 6.70834ZM1.91667 3.83334V1.91667V13.4167V3.83334Z" fill="#00231E" fill-opacity="0.75"/>
</g>
</svg>
