<svg width="18" height="19" viewBox="0 0 18 19" fill="none" xmlns="http://www.w3.org/2000/svg">
<g opacity="0.75">
<path d="M12.3421 9.69157C13.2288 8.99393 13.876 8.03727 14.1937 6.95467C14.5114 5.87207 14.4837 4.71736 14.1146 3.65121C13.7455 2.58505 13.0532 1.66046 12.1341 1.00606C11.215 0.351661 10.1148 0 8.98659 0C7.85834 0 6.75814 0.351661 5.83906 1.00606C4.91997 1.66046 4.22771 2.58505 3.85858 3.65121C3.48945 4.71736 3.4618 5.87207 3.77948 6.95467C4.09717 8.03727 4.74439 8.99393 5.6311 9.69157C4.1117 10.3003 2.78598 11.3099 1.79525 12.6128C0.80453 13.9158 0.185949 15.4631 0.00545546 17.0899C-0.0076096 17.2087 0.00284753 17.3289 0.0362296 17.4436C0.0696116 17.5583 0.125265 17.6654 0.200012 17.7586C0.35097 17.9469 0.570537 18.0675 0.810411 18.0939C1.05028 18.1202 1.29082 18.0503 1.47909 17.8993C1.66736 17.7483 1.78796 17.5288 1.81434 17.2889C2.01295 15.5209 2.85598 13.888 4.18238 12.7023C5.50877 11.5165 7.22554 10.861 9.00467 10.861C10.7838 10.861 12.5006 11.5165 13.827 12.7023C15.1534 13.888 15.9964 15.5209 16.195 17.2889C16.2196 17.5111 16.3256 17.7164 16.4927 17.865C16.6597 18.0137 16.8759 18.0952 17.0994 18.0939H17.1989C17.436 18.0666 17.6527 17.9467 17.8018 17.7603C17.9509 17.574 18.0203 17.3363 17.9948 17.099C17.8135 15.4675 17.1916 13.9162 16.1958 12.6113C15.2 11.3064 13.8678 10.2971 12.3421 9.69157ZM8.98659 9.04941C8.27106 9.04941 7.5716 8.83723 6.97666 8.43971C6.38172 8.04218 5.91802 7.47716 5.6442 6.8161C5.37037 6.15504 5.29873 5.42762 5.43832 4.72584C5.57792 4.02406 5.92248 3.37944 6.42843 2.87348C6.93439 2.36753 7.57901 2.02297 8.28079 1.88337C8.98257 1.74378 9.70999 1.81542 10.371 2.08925C11.0321 2.36307 11.5971 2.82677 11.9947 3.42171C12.3922 4.01665 12.6044 4.71611 12.6044 5.43164C12.6044 6.39113 12.2232 7.31133 11.5447 7.98979C10.8663 8.66825 9.94608 9.04941 8.98659 9.04941Z" fill="#00231E"/>
<path d="M12.3421 9.69157C13.2288 8.99393 13.876 8.03727 14.1937 6.95467C14.5114 5.87207 14.4837 4.71736 14.1146 3.65121C13.7455 2.58505 13.0532 1.66046 12.1341 1.00606C11.215 0.351661 10.1148 0 8.98659 0C7.85834 0 6.75814 0.351661 5.83906 1.00606C4.91997 1.66046 4.22771 2.58505 3.85858 3.65121C3.48945 4.71736 3.4618 5.87207 3.77948 6.95467C4.09717 8.03727 4.74439 8.99393 5.6311 9.69157C4.1117 10.3003 2.78598 11.3099 1.79525 12.6128C0.80453 13.9158 0.185949 15.4631 0.00545546 17.0899C-0.0076096 17.2087 0.00284753 17.3289 0.0362296 17.4436C0.0696116 17.5583 0.125265 17.6654 0.200012 17.7586C0.35097 17.9469 0.570537 18.0675 0.810411 18.0939C1.05028 18.1202 1.29082 18.0503 1.47909 17.8993C1.66736 17.7483 1.78796 17.5288 1.81434 17.2889C2.01295 15.5209 2.85598 13.888 4.18238 12.7023C5.50877 11.5165 7.22554 10.861 9.00467 10.861C10.7838 10.861 12.5006 11.5165 13.827 12.7023C15.1534 13.888 15.9964 15.5209 16.195 17.2889C16.2196 17.5111 16.3256 17.7164 16.4927 17.865C16.6597 18.0137 16.8759 18.0952 17.0994 18.0939H17.1989C17.436 18.0666 17.6527 17.9467 17.8018 17.7603C17.9509 17.574 18.0203 17.3363 17.9948 17.099C17.8135 15.4675 17.1916 13.9162 16.1958 12.6113C15.2 11.3064 13.8678 10.2971 12.3421 9.69157ZM8.98659 9.04941C8.27106 9.04941 7.5716 8.83723 6.97666 8.43971C6.38172 8.04218 5.91802 7.47716 5.6442 6.8161C5.37037 6.15504 5.29873 5.42762 5.43832 4.72584C5.57792 4.02406 5.92248 3.37944 6.42843 2.87348C6.93439 2.36753 7.57901 2.02297 8.28079 1.88337C8.98257 1.74378 9.70999 1.81542 10.371 2.08925C11.0321 2.36307 11.5971 2.82677 11.9947 3.42171C12.3922 4.01665 12.6044 4.71611 12.6044 5.43164C12.6044 6.39113 12.2232 7.31133 11.5447 7.98979C10.8663 8.66825 9.94608 9.04941 8.98659 9.04941Z" fill="#00231E" fill-opacity="0.75"/>
</g>
</svg>
