<svg width="33" height="42" viewBox="0 0 33 42" fill="none" xmlns="http://www.w3.org/2000/svg">
<path d="M16.4839 0.353363C12.1137 0.358461 7.92397 2.06757 4.83376 5.10579C1.74355 8.144 0.00518536 12.2632 0 16.5599C0 30.427 14.9854 40.9014 15.6234 41.3403C15.8758 41.5135 16.1761 41.6064 16.4839 41.6064C16.7917 41.6064 17.0921 41.5135 17.3444 41.3403C17.9825 40.9014 32.9679 30.427 32.9679 16.5599C32.9627 12.2632 31.2243 8.144 28.1341 5.10579C25.0439 2.06757 20.8542 0.358461 16.4839 0.353363ZM16.485 10.6672C17.6706 10.6672 18.8295 11.0128 19.8152 11.6604C20.8009 12.3079 21.5692 13.2283 22.0229 14.3052C22.4766 15.382 22.5953 16.567 22.364 17.7102C22.1327 18.8534 21.5618 19.9035 20.7235 20.7276C19.8852 21.5518 18.8172 22.1131 17.6544 22.3405C16.4917 22.5679 15.2865 22.4512 14.1912 22.0052C13.0959 21.5591 12.1597 20.8037 11.5011 19.8346C10.8424 18.8654 10.4909 17.726 10.4909 16.5605C10.4909 15.7865 10.6459 15.0202 10.9471 14.3052C11.2483 13.5901 11.6899 12.9405 12.2465 12.3932C12.8031 11.846 13.4639 11.4119 14.1911 11.1157C14.9184 10.8196 15.6979 10.6671 16.485 10.6672Z" fill="#87B7FF"/>
</svg>
