<svg width="1730" height="486" viewBox="0 0 1730 486" fill="none" xmlns="http://www.w3.org/2000/svg">
    <path fill-rule="evenodd" clip-rule="evenodd" d="M0 70.2347V0.488526C3.96845 14.835 13.5358 37.5957 29.7163 58.2256C48.4249 82.0788 74.7707 101.661 110.209 103.897C163.288 107.247 233.22 121.347 297.575 146.241C361.437 170.945 422.554 207.331 454.738 256.971C475.385 288.816 505.115 302.858 536.479 310.229C552.292 313.946 568.174 315.882 583.42 317.602C584.651 317.741 585.884 317.879 587.118 318.017C600.657 319.531 614.266 321.053 625.501 323.869C632.031 325.505 640.006 327.082 649.407 328.941L649.409 328.941L650.352 329.127C659.998 331.035 670.851 333.197 682.074 335.879C704.381 341.21 729.196 348.825 750.636 361.532C776.017 376.576 791.486 394.584 804.12 409.292C804.522 409.759 804.921 410.224 805.317 410.685C805.695 411.124 806.07 411.561 806.444 411.994C819.708 427.375 829.491 437.541 845.417 442.591C854.265 445.397 883.331 451.486 915.244 453.732C931.076 454.847 947.085 454.974 961.271 453.425C975.482 451.873 986.485 448.778 993.662 444.44C1029.9 418.499 1050.03 390.829 1061.92 363.149C1073.99 335.034 1077.92 306.13 1080.61 276.883C1081.05 272.129 1081.45 267.324 1081.85 262.491C1086.19 210.07 1090.83 154.138 1149.43 119.976C1186.79 98.1962 1218.07 88.5246 1250.97 89.6824C1283.2 90.8169 1315.29 102.349 1353.92 119.153C1383.07 131.837 1414.3 134.689 1444.65 135.266C1452.21 135.41 1459.62 135.414 1466.94 135.41L1468.16 135.409C1475.01 135.405 1481.81 135.401 1488.34 135.515C1502.04 135.755 1515.61 136.517 1527.66 139.25C1553.29 145.064 1604.51 163.657 1650.41 182.18C1673.56 191.524 1695.79 201.021 1713.29 209.143C1719.43 211.994 1725.07 214.71 1730 217.218V252.305L1729.64 252.686C1729.67 252.706 1729.66 252.702 1729.63 252.675C1729.49 252.567 1728.88 252.09 1727.5 251.222C1725.93 250.229 1723.82 249.005 1721.14 247.56C1715.78 244.675 1708.69 241.185 1700.24 237.262C1683.36 229.43 1661.65 220.146 1638.81 210.928C1592.71 192.326 1543.67 174.669 1520.8 169.482C1512.02 167.49 1501.11 166.744 1487.8 166.511C1481.56 166.401 1475.02 166.405 1468.08 166.409L1466.96 166.41C1459.65 166.414 1451.96 166.411 1444.06 166.261C1412.58 165.662 1376.4 162.74 1341.55 147.579C1303.17 130.884 1275.77 121.574 1249.88 120.663C1224.65 119.775 1199.18 126.854 1165.04 146.757C1120.92 172.479 1117.46 211.82 1112.63 266.837C1112.26 271.041 1111.88 275.337 1111.48 279.725C1108.73 309.54 1104.5 342.543 1090.4 375.38C1076.16 408.546 1052.22 440.767 1011.23 469.987L1010.84 470.269L1010.42 470.526C997.505 478.566 980.996 482.455 964.636 484.241C947.998 486.058 930.01 485.849 913.067 484.656C879.428 482.287 847.828 475.876 836.048 472.141C810.974 464.191 796.221 447.608 782.967 432.239C782.312 431.478 781.657 430.718 781.004 429.959C768.26 415.149 755.727 400.586 734.83 388.2C717.382 377.859 696.126 371.11 674.869 366.03C664.31 363.506 654.008 361.451 644.338 359.539L642.971 359.268C633.955 357.486 625.277 355.771 617.964 353.939C608.858 351.656 597.327 350.36 582.984 348.749C581.985 348.636 580.972 348.522 579.945 348.407C564.691 346.686 547.173 344.587 529.387 340.407C493.551 331.985 455.281 314.791 428.727 273.836C401.911 232.476 348.278 199.094 286.391 175.154C224.996 151.404 158.177 137.986 108.256 134.836C61.2947 131.872 27.5571 105.704 5.32399 77.3571C3.47872 75.0044 1.70436 72.6269 0 70.2347Z" fill="#F6F0D8"/>
</svg>
